<mxfile host="app.diagrams.net" modified="2023-03-24T14:12:54.879Z" agent="5.0 (X11)" etag="sWNj0JveApCsZpMmmqU0" version="21.0.8" type="github">
  <diagram id="C5RBs43oDa-KdzZeNtuy" name="Page-1">
    <mxGraphModel dx="989" dy="548" grid="1" gridSize="10" guides="1" tooltips="1" connect="1" arrows="1" fold="1" page="1" pageScale="1" pageWidth="827" pageHeight="1169" math="0" shadow="0">
      <root>
        <mxCell id="WIyWlLk6GJQsqaUBKTNV-0" />
        <mxCell id="WIyWlLk6GJQsqaUBKTNV-1" parent="WIyWlLk6GJQsqaUBKTNV-0" />
        <mxCell id="EkdHyOvBxnh9aAiLOI_5-0" value="" style="edgeStyle=orthogonalEdgeStyle;rounded=0;orthogonalLoop=1;jettySize=auto;html=1;" edge="1" parent="WIyWlLk6GJQsqaUBKTNV-1" source="EkdHyOvBxnh9aAiLOI_5-1" target="EkdHyOvBxnh9aAiLOI_5-3">
          <mxGeometry relative="1" as="geometry" />
        </mxCell>
        <mxCell id="EkdHyOvBxnh9aAiLOI_5-1" value="Начало" style="rounded=1;whiteSpace=wrap;html=1;fontSize=12;glass=0;strokeWidth=1;shadow=0;" vertex="1" parent="WIyWlLk6GJQsqaUBKTNV-1">
          <mxGeometry x="175" y="130" width="120" height="40" as="geometry" />
        </mxCell>
        <mxCell id="EkdHyOvBxnh9aAiLOI_5-2" value="" style="edgeStyle=orthogonalEdgeStyle;rounded=0;orthogonalLoop=1;jettySize=auto;html=1;" edge="1" parent="WIyWlLk6GJQsqaUBKTNV-1" source="EkdHyOvBxnh9aAiLOI_5-3" target="EkdHyOvBxnh9aAiLOI_5-5">
          <mxGeometry relative="1" as="geometry" />
        </mxCell>
        <mxCell id="EkdHyOvBxnh9aAiLOI_5-3" value="&lt;div&gt;Генерируем&lt;/div&gt;&lt;div&gt;массив случайных&lt;/div&gt;&lt;div&gt;чисел.&lt;br&gt;&lt;/div&gt;" style="whiteSpace=wrap;html=1;rounded=1;glass=0;strokeWidth=1;shadow=0;" vertex="1" parent="WIyWlLk6GJQsqaUBKTNV-1">
          <mxGeometry x="175" y="190" width="120" height="60" as="geometry" />
        </mxCell>
        <mxCell id="EkdHyOvBxnh9aAiLOI_5-4" value="" style="edgeStyle=orthogonalEdgeStyle;rounded=0;orthogonalLoop=1;jettySize=auto;html=1;" edge="1" parent="WIyWlLk6GJQsqaUBKTNV-1" source="EkdHyOvBxnh9aAiLOI_5-5" target="EkdHyOvBxnh9aAiLOI_5-15">
          <mxGeometry relative="1" as="geometry" />
        </mxCell>
        <mxCell id="EkdHyOvBxnh9aAiLOI_5-5" value="&lt;div&gt;Выводим исходную матрицу.&lt;/div&gt;" style="whiteSpace=wrap;html=1;rounded=1;glass=0;strokeWidth=1;shadow=0;" vertex="1" parent="WIyWlLk6GJQsqaUBKTNV-1">
          <mxGeometry x="175" y="270" width="120" height="60" as="geometry" />
        </mxCell>
        <mxCell id="EkdHyOvBxnh9aAiLOI_5-6" value="" style="edgeStyle=orthogonalEdgeStyle;rounded=0;orthogonalLoop=1;jettySize=auto;html=1;" edge="1" parent="WIyWlLk6GJQsqaUBKTNV-1" source="EkdHyOvBxnh9aAiLOI_5-8">
          <mxGeometry relative="1" as="geometry">
            <mxPoint x="410" y="220" as="targetPoint" />
          </mxGeometry>
        </mxCell>
        <mxCell id="EkdHyOvBxnh9aAiLOI_5-21" value="" style="edgeStyle=orthogonalEdgeStyle;rounded=0;orthogonalLoop=1;jettySize=auto;html=1;" edge="1" parent="WIyWlLk6GJQsqaUBKTNV-1" source="EkdHyOvBxnh9aAiLOI_5-8" target="EkdHyOvBxnh9aAiLOI_5-20">
          <mxGeometry relative="1" as="geometry" />
        </mxCell>
        <mxCell id="EkdHyOvBxnh9aAiLOI_5-8" value="от i до m с шагом 1" style="rhombus;whiteSpace=wrap;html=1;rounded=1;glass=0;strokeWidth=1;shadow=0;" vertex="1" parent="WIyWlLk6GJQsqaUBKTNV-1">
          <mxGeometry x="370" y="140" width="80" height="80" as="geometry" />
        </mxCell>
        <mxCell id="EkdHyOvBxnh9aAiLOI_5-9" value="&lt;div&gt;n: порядок матрицы&lt;/div&gt;&lt;div&gt;a: эл-т матрицы, стоящий на позиции [i,j]&lt;br&gt;&lt;/div&gt;" style="text;whiteSpace=wrap;html=1;" vertex="1" parent="WIyWlLk6GJQsqaUBKTNV-1">
          <mxGeometry x="150" y="60" width="185" height="65" as="geometry" />
        </mxCell>
        <mxCell id="EkdHyOvBxnh9aAiLOI_5-10" value="" style="edgeStyle=orthogonalEdgeStyle;rounded=0;orthogonalLoop=1;jettySize=auto;html=1;entryX=0.5;entryY=0;entryDx=0;entryDy=0;" edge="1" parent="WIyWlLk6GJQsqaUBKTNV-1" source="EkdHyOvBxnh9aAiLOI_5-11" target="EkdHyOvBxnh9aAiLOI_5-13">
          <mxGeometry relative="1" as="geometry" />
        </mxCell>
        <mxCell id="EkdHyOvBxnh9aAiLOI_5-11" value="от j до n с шагом 1" style="rhombus;whiteSpace=wrap;html=1;rounded=1;glass=0;strokeWidth=1;shadow=0;" vertex="1" parent="WIyWlLk6GJQsqaUBKTNV-1">
          <mxGeometry x="370" y="220" width="80" height="80" as="geometry" />
        </mxCell>
        <mxCell id="EkdHyOvBxnh9aAiLOI_5-13" value="&lt;div&gt;перезаписываем a-ый элемент&lt;/div&gt;&lt;div&gt;a = a * ((i+j)/(n-1));&lt;/div&gt;" style="whiteSpace=wrap;html=1;rounded=1;glass=0;strokeWidth=1;shadow=0;" vertex="1" parent="WIyWlLk6GJQsqaUBKTNV-1">
          <mxGeometry x="350" y="310" width="120" height="60" as="geometry" />
        </mxCell>
        <mxCell id="EkdHyOvBxnh9aAiLOI_5-14" value="" style="endArrow=classic;html=1;rounded=0;entryX=0;entryY=0.5;entryDx=0;entryDy=0;exitX=0;exitY=0.5;exitDx=0;exitDy=0;" edge="1" parent="WIyWlLk6GJQsqaUBKTNV-1" source="EkdHyOvBxnh9aAiLOI_5-13" target="EkdHyOvBxnh9aAiLOI_5-8">
          <mxGeometry width="50" height="50" relative="1" as="geometry">
            <mxPoint x="355" y="325" as="sourcePoint" />
            <mxPoint x="350" y="170" as="targetPoint" />
            <Array as="points">
              <mxPoint x="330" y="340" />
              <mxPoint x="330" y="180" />
            </Array>
          </mxGeometry>
        </mxCell>
        <mxCell id="EkdHyOvBxnh9aAiLOI_5-15" value="A" style="ellipse;whiteSpace=wrap;html=1;rounded=1;glass=0;strokeWidth=1;shadow=0;" vertex="1" parent="WIyWlLk6GJQsqaUBKTNV-1">
          <mxGeometry x="210" y="340" width="50" height="50" as="geometry" />
        </mxCell>
        <mxCell id="EkdHyOvBxnh9aAiLOI_5-16" value="" style="edgeStyle=orthogonalEdgeStyle;rounded=0;orthogonalLoop=1;jettySize=auto;html=1;" edge="1" parent="WIyWlLk6GJQsqaUBKTNV-1" source="EkdHyOvBxnh9aAiLOI_5-17" target="EkdHyOvBxnh9aAiLOI_5-8">
          <mxGeometry relative="1" as="geometry" />
        </mxCell>
        <mxCell id="EkdHyOvBxnh9aAiLOI_5-17" value="A" style="ellipse;whiteSpace=wrap;html=1;rounded=1;glass=0;strokeWidth=1;shadow=0;" vertex="1" parent="WIyWlLk6GJQsqaUBKTNV-1">
          <mxGeometry x="385" y="70" width="50" height="50" as="geometry" />
        </mxCell>
        <mxCell id="EkdHyOvBxnh9aAiLOI_5-18" value="&lt;div&gt;Конец&lt;/div&gt;" style="whiteSpace=wrap;html=1;rounded=1;glass=0;strokeWidth=1;shadow=0;" vertex="1" parent="WIyWlLk6GJQsqaUBKTNV-1">
          <mxGeometry x="497" y="310" width="66" height="30" as="geometry" />
        </mxCell>
        <mxCell id="EkdHyOvBxnh9aAiLOI_5-24" value="" style="edgeStyle=orthogonalEdgeStyle;rounded=0;orthogonalLoop=1;jettySize=auto;html=1;" edge="1" parent="WIyWlLk6GJQsqaUBKTNV-1" source="EkdHyOvBxnh9aAiLOI_5-20" target="EkdHyOvBxnh9aAiLOI_5-23">
          <mxGeometry relative="1" as="geometry" />
        </mxCell>
        <mxCell id="EkdHyOvBxnh9aAiLOI_5-20" value="Делим последний эл-т матрицы на 2." style="whiteSpace=wrap;html=1;rounded=1;glass=0;strokeWidth=1;shadow=0;" vertex="1" parent="WIyWlLk6GJQsqaUBKTNV-1">
          <mxGeometry x="470" y="150" width="120" height="60" as="geometry" />
        </mxCell>
        <mxCell id="EkdHyOvBxnh9aAiLOI_5-25" value="" style="edgeStyle=orthogonalEdgeStyle;rounded=0;orthogonalLoop=1;jettySize=auto;html=1;" edge="1" parent="WIyWlLk6GJQsqaUBKTNV-1" source="EkdHyOvBxnh9aAiLOI_5-23" target="EkdHyOvBxnh9aAiLOI_5-18">
          <mxGeometry relative="1" as="geometry" />
        </mxCell>
        <mxCell id="EkdHyOvBxnh9aAiLOI_5-23" value="Выводим матрицу" style="whiteSpace=wrap;html=1;rounded=1;glass=0;strokeWidth=1;shadow=0;" vertex="1" parent="WIyWlLk6GJQsqaUBKTNV-1">
          <mxGeometry x="470" y="230" width="120" height="60" as="geometry" />
        </mxCell>
      </root>
    </mxGraphModel>
  </diagram>
</mxfile>
